<svg width="22" height="22" viewBox="0 0 22 22" fill="none" xmlns="http://www.w3.org/2000/svg">
<path d="M10.6754 13.8837L5.3661 8.57434C5.30189 8.51029 5.25812 8.42863 5.24034 8.3397C5.22256 8.25077 5.23156 8.15857 5.2662 8.07475C5.30085 7.99094 5.35958 7.91929 5.43496 7.86887C5.51034 7.81845 5.59899 7.79152 5.68968 7.7915H16.3102C16.4009 7.79152 16.4895 7.81845 16.5649 7.86887C16.6403 7.91929 16.699 7.99094 16.7337 8.07475C16.7683 8.15857 16.7773 8.25077 16.7595 8.3397C16.7417 8.42863 16.698 8.51029 16.6338 8.57434L11.3235 13.8837C11.2376 13.9696 11.121 14.0179 10.9995 14.0179C10.8779 14.0179 10.7614 13.9696 10.6754 13.8837Z" fill="#005AA3"/>
</svg>
